<?xml version="1.0" encoding="utf-8"?>

<!DOCTYPE svg PUBLIC "-//W3C//DTD SVG 1.1//EN" "http://www.w3.org/Graphics/SVG/1.1/DTD/svg11.dtd">
<!-- Uploaded to: SVG Repo, www.svgrepo.com, Generator: SVG Repo Mixer Tools -->
<svg fill="#6B63F6" height="50px" width="50px" version="1.1" id="_x32_" xmlns="http://www.w3.org/2000/svg" xmlns:xlink="http://www.w3.org/1999/xlink"
	viewBox="0 0 512 512"   xml:space="preserve">
<style type="text/css">
	.st0{fill:#6B63F6;}
</style>
<g>
	<polygon class="st0" points="299.139,473.235 402.391,512 407.895,497.358 304.644,458.593 	"/>
	<polygon class="st0" points="299.139,430.784 304.644,445.425 407.895,406.67 402.391,392.028 	"/>
	<polygon class="st0" points="102.027,497.358 107.531,512 210.783,473.235 205.278,458.593 	"/>
	<polygon class="st0" points="102.027,406.67 205.278,445.425 210.783,430.784 107.531,392.028 	"/>
	<path class="st0" d="M287.851,443.916c0.271-0.859,0.605-1.772,0.904-2.657c-21.158-7.348-44.215-7.176-65.291,0.479
		c0.243,0.723,0.524,1.472,0.75,2.178v0.054c0.172,0.551,0.29,1.048,0.452,1.59c-0.462,2.17-0.732,4.402-0.732,6.716
		c0,17.706,14.361,32.068,32.076,32.068c17.706,0,32.067-14.362,32.067-32.068c0-2.286-0.252-4.501-0.705-6.652
		c0.163-0.561,0.299-1.076,0.48-1.654V443.916z"/>
	<path class="st0" d="M417.945,176.776c0,0,23.464-129.841-10.954-176.776c-81.342,25.026-109.506,101.688-109.506,101.688h-82.969
		c0,0-28.163-76.661-109.506-101.688C70.593,46.935,94.055,176.776,94.055,176.776S59.638,281.591,69.029,331.653
		c25.524,0,79.78-1.563,122.014,51.617c0.316,0.397,0.578,0.778,0.886,1.174c0.461-17.217,1.094-41.439,1.094-44.937
		c0-4.085,10.349,44.422,15.672,69.692c4.329,7.52,7.836,14.705,10.611,21.384c23.76-8.667,49.79-8.849,73.633-0.497
		c2.729-6.544,6.154-13.558,10.376-20.905c5.333-25.271,15.673-73.76,15.673-69.675c0,3.498,0.632,27.71,1.093,44.928
		c0.298-0.388,0.569-0.777,0.876-1.166c42.236-53.18,96.491-51.617,122.015-51.617C452.362,281.591,417.945,176.776,417.945,176.776
		z M115.205,47.45c52.141,41.72,54.238,68.834,54.238,68.834l-54.238,20.86C115.205,137.144,106.862,62.047,115.205,47.45z
		 M141.65,270.276c48.815-17.833,76.67,14.677,84.019,38.095C191.965,285.351,173.781,280.832,141.65,270.276z M287.661,308.371
		c7.348-23.418,35.212-55.928,84.027-38.095C339.548,280.832,321.373,285.351,287.661,308.371z M395.178,137.144l-54.238-20.86
		c0,0,2.088-27.115,54.238-68.834C403.52,62.047,395.178,137.144,395.178,137.144z"/>
</g>

</svg>
